<?xml version="1.0" encoding="utf-8"?>
<!-- Generator: Adobe Illustrator 19.0.0, SVG Export Plug-In . SVG Version: 6.00 Build 0)  -->
<svg version="1.1" id="图层_1" xmlns="http://www.w3.org/2000/svg" xmlns:xlink="http://www.w3.org/1999/xlink" x="0px" y="0px"
	 viewBox="0 0 487.6 130.4" style="enable-background:new 0 0 487.6 130.4;" xml:space="preserve">
<style type="text/css">
	.st0{clip-path:url(#XMLID_27_);fill-rule:evenodd;clip-rule:evenodd;fill:#32ACCC;}
	.st1{clip-path:url(#XMLID_29_);fill-rule:evenodd;clip-rule:evenodd;fill:#32ACCC;}
	.st2{fill-rule:evenodd;clip-rule:evenodd;fill:#FEFEFE;}
	.st3{fill-rule:evenodd;clip-rule:evenodd;fill:#FBFBFB;}
	.st4{fill-rule:evenodd;clip-rule:evenodd;fill:#F7F7F7;}
	.st5{fill-rule:evenodd;clip-rule:evenodd;fill:#32ACCC;}
	.st6{fill-rule:evenodd;clip-rule:evenodd;fill:#E082AB;}
	.st7{fill:#32ACCC;}
</style>
<g id="XMLID_42_">
	<g id="XMLID_56_">
		<defs>
			<rect id="XMLID_23_" x="6.5" y="10.3" width="68.9" height="118.3"/>
		</defs>
		<clipPath id="XMLID_27_">
			<use xlink:href="#XMLID_23_"  style="overflow:visible;"/>
		</clipPath>
		<path id="XMLID_24_" class="st0" d="M75,122c-10.9,0.1-20.9-0.1-30.5-3.3c-19.1-6.3-28.6-21.2-26.1-41.2c0.1-1.1,0.3-2.2,0.5-3.3
			c1.3-5.8,0.5-11-2.2-16.6c-4.5-9.6-5.5-20.1-3.1-30.6c1.3-5.6,3.9-8,9.7-8.3c8.5-0.5,16.3,1.5,23.3,6.4c2,1.4,3.7,1.9,6.2,0.8
			c14.2-6.1,28.5-6,42.7-0.3c2.8,1.1,4.7,0.8,7-0.9c7-5,14.9-6.5,23.3-6c4.9,0.3,7.9,2.8,9,7.8c2.4,11.3,1.4,22.2-3.7,32.4
			c-2.4,4.7-2.5,9-1.7,13.9c1.8,11,1.3,21.8-4.9,31.7c-6,9.4-15.4,13.3-25.6,15.8C90.8,122.2,82.5,122.2,75,122z"/>
	</g>
	<g id="XMLID_53_">
		<defs>
			<rect id="XMLID_21_" x="74.2" y="10.3" width="65.8" height="117.5"/>
		</defs>
		<clipPath id="XMLID_29_">
			<use xlink:href="#XMLID_21_"  style="overflow:visible;"/>
		</clipPath>
		<path id="XMLID_22_" class="st1" d="M73.5,122.1c10.9,0.1,20.9-0.1,30.5-3.3c19.1-6.3,28.6-21.2,26.1-41.2
			c-0.1-1.1-0.3-2.2-0.5-3.3c-1.3-5.8-0.5-11,2.2-16.6c4.5-9.6,5.5-20.1,3.1-30.6c-1.3-5.6-3.9-8-9.7-8.3
			c-8.5-0.5-16.3,1.5-23.3,6.4c-2,1.4-3.7,1.9-6.2,0.8c-14.2-6.1-28.5-6-42.7-0.3c-2.8,1.1-4.7,0.8-7-0.9c-7-5-14.9-6.5-23.3-6
			c-4.9,0.3-7.9,2.8-9,7.8c-2.4,11.3-1.4,22.2,3.7,32.4c2.4,4.7,2.5,9,1.7,13.9c-1.8,11-1.3,21.8,4.9,31.7
			c6,9.4,15.4,13.3,25.6,15.8C57.7,122.2,66.1,122.3,73.5,122.1z"/>
	</g>
	<path id="XMLID_20_" class="st2" d="M74.9,117.2c-9.9,0.1-18.9-0.3-27.7-2.8c-14-3.9-22.6-12.5-23.8-27.4
		C22,67,29.7,43.9,49.2,32.9c31.4-17.6,69.3,1.2,75,37.4c0.9,5.9,1.6,11.8,0.9,17.8c-1.9,15.4-12.8,25.4-30,27.9
		C88.1,116.9,81.1,117.4,74.9,117.2z"/>
	<path id="XMLID_19_" class="st3" d="M22.1,57.3c-5.1-10-5.3-20-3.5-30.1c0.4-2.3,2.2-3.5,4.5-3.7c6.4-0.6,12.5,0.7,18.1,3.9
		c1.1,0.6,3.1,1.2,2,3.1c-0.8,1.4-2.4,2.3-4.1,1.3c-3.3-1.8-6.8-2.7-10.5-3.2c-3.7-0.5-5.5,0.9-5.7,4.6c-0.2,5.2-0.4,10.3,1.1,15.3
		C24.9,51.6,24.5,54.2,22.1,57.3z"/>
	<path id="XMLID_18_" class="st3" d="M126.3,57.3c5.1-10,5.3-20,3.5-30.1c-0.4-2.3-2.2-3.5-4.5-3.7c-6.4-0.6-12.5,0.7-18.1,3.9
		c-1.1,0.6-3.1,1.2-2,3.1c0.8,1.4,2.4,2.3,4.1,1.3c3.3-1.8,6.8-2.7,10.5-3.2c3.7-0.5,5.5,0.9,5.7,4.6c0.2,5.2,0.4,10.3-1.1,15.3
		C123.5,51.6,124,54.2,126.3,57.3z"/>
	<path id="XMLID_17_" class="st4" d="M120.2,45.2c-2.1-2.4-3.5-3.8-4.8-5.4c-0.9-1.2-3.1-2.3-1.8-3.9c1.4-1.8,3.9-2.4,6.1-1.9
		c2.1,0.4,1.6,2.5,1.5,4.1C121.2,40,120.7,42.1,120.2,45.2z"/>
	<path id="XMLID_16_" class="st4" d="M28.4,45.3c2.1-2.4,3.5-3.8,4.8-5.4c0.9-1.2,3.1-2.3,1.8-3.9c-1.4-1.8-3.9-2.4-6.1-1.9
		c-2.1,0.4-1.6,2.5-1.5,4.1C27.4,40.1,27.9,42.2,28.4,45.3z"/>
	<path id="XMLID_15_" class="st5" d="M74.4,87c-1.7,0-3.1-0.6-4.4-1.5c-1.4-0.9-2.7-2-1.7-3.9c0.9-1.7,2.4-1.2,3.8-0.6
		c1.5,0.7,3,1,4.5,0.2c1.5-0.8,3.2-1.4,4,0.7c0.7,1.8-0.7,2.9-2.1,3.8C77.2,86.5,75.8,87,74.4,87z"/>
	<path id="XMLID_14_" class="st6" d="M49.9,87.3c-2.3-0.3-5.3,0.3-5.1-2.6c0.2-3.1,3.3-2.3,5.4-2.4c2,0,4.9-0.2,4.8,2.6
		C54.8,88.2,51.5,86.6,49.9,87.3z"/>
	<path id="XMLID_13_" class="st6" d="M98.5,87.2c-1.8-0.3-4.6,0.5-4.6-2.2c-0.1-3.3,3-2.7,5.1-2.7c1.9,0,4.9-0.5,4.6,2.6
		C103.3,87.8,100.4,86.9,98.5,87.2z"/>
	<path id="XMLID_12_" class="st5" d="M52.7,75.6c-0.2,1.9-0.3,4.2-2.9,4.1c-2.5-0.1-2.6-2.4-2.6-4.4c0.1-1.9,0.2-4.3,2.8-4.1
		C52.5,71.3,52.6,73.6,52.7,75.6z"/>
	<path id="XMLID_11_" class="st5" d="M101.3,75.7c-0.1,1.8,0,4-2.4,4.1c-2.8,0.1-2.5-2.4-2.5-4.3c0-1.9-0.3-4.4,2.5-4.3
		C101.5,71.3,101.1,73.8,101.3,75.7z"/>
</g>
<path id="XMLID_38_" class="st7" d="M174.5,104.8v-63c-0.3-3.2,1.3-4.8,4.8-4.8h15.9c11.7,0.8,18.2,6.5,19.5,17.1
	c-0.5,8.5-4,13.8-10.4,15.9v0.4c9.8,1.9,15.1,7.8,15.9,17.9c-1.1,13.5-9,20.6-23.9,21.1h-17.1C175.8,109.6,174.2,108,174.5,104.8z
	 M183.3,44.6v23.1h10.4c7.4-0.3,11.4-4.2,12-12c-0.3-7.2-4.1-10.9-11.6-11.2H183.3z M183.3,74.9V102H196c9.3-0.5,14.3-5,15.1-13.5
	c-0.5-8.5-5.4-13-14.7-13.5H183.3z"/>
<path id="XMLID_35_" class="st7" d="M238.3,41.8c0.3-3.4,2.1-5.3,5.6-5.6c3.4,0.3,5.3,2.1,5.6,5.6c-0.3,3.5-2.1,5.3-5.6,5.6
	C240.4,47.1,238.6,45.3,238.3,41.8z M248.3,59.4v46.2c-0.3,2.7-1.7,4-4.4,4c-2.9,0-4.4-1.3-4.4-4V59.4c0-2.9,1.5-4.5,4.4-4.8
	C246.5,54.8,248,56.4,248.3,59.4z"/>
<path id="XMLID_33_" class="st7" d="M274.2,55.4v-12c0-2.9,1.5-4.5,4.4-4.8c2.9,0.3,4.5,1.9,4.8,4.8v12h3.6c2.7,0,4.1,1.3,4.4,4
	c-0.3,2.4-1.7,3.6-4.4,3.6h-3.6v42.6c-0.3,2.7-1.9,4-4.8,4c-2.9,0-4.4-1.3-4.4-4V63h-3.6c-3.2,0-4.7-1.2-4.4-3.6
	c-0.3-2.7,1.2-4,4.4-4H274.2z"/>
<path id="XMLID_31_" class="st7" d="M330.8,70.9c0.8,18.9,8.2,28.6,22.3,29.1c4.2,0,9-1.3,14.3-4c2.4-1.6,4.1-2.4,5.2-2.4
	c2.1,0.3,3.3,1.6,3.6,4c-2.1,6.1-9.8,9.3-23.1,9.6c-19.9-0.8-30.6-12.9-31.9-36.3c1.3-23.4,12.1-35.7,32.3-37.1
	c11.2,0.8,18.2,4.4,21.1,10.8c-0.3,2.9-1.5,4.4-3.6,4.4c-1.3,0-2.9-0.7-4.8-2c-4-3.4-8.2-5.2-12.8-5.2
	C339.2,42.6,331.6,52.3,330.8,70.9z"/>
<path id="XMLID_28_" class="st7" d="M428.7,56.6v47c-0.3,2.4-1.6,3.6-4,3.6c-2.9,0-4.4-1.2-4.4-3.6v-4c-4.3,5-9.2,7.6-14.7,7.6
	c-14.9-0.5-22.9-9.6-23.9-27.1c1.1-17.5,9-26.8,23.9-27.9c5,0,10,2.4,14.7,7.2v-2.8c0-2.7,1.5-4.1,4.4-4.4
	C427.1,52.7,428.4,54.2,428.7,56.6z M390.5,80.1c0.5,13,5.6,19.7,15.1,19.9c9.3-0.3,14.2-6.9,14.7-19.9
	c-0.5-12.8-5.4-19.4-14.7-19.9C396,60.7,391,67.3,390.5,80.1z"/>
<path id="XMLID_26_" class="st7" d="M443.9,53V41c0-2.9,1.5-4.5,4.4-4.8c2.9,0.3,4.5,1.9,4.8,4.8v12h3.6c2.7,0,4.1,1.3,4.4,4
	c-0.3,2.4-1.7,3.6-4.4,3.6H453v42.6c-0.3,2.7-1.9,4-4.8,4c-2.9,0-4.4-1.3-4.4-4V60.6h-3.6c-3.2,0-4.7-1.2-4.4-3.6
	c-0.3-2.7,1.2-4,4.4-4H443.9z"/>
</svg>
