<?xml version="1.0" encoding="utf-8"?>
<!-- Generator: Adobe Illustrator 16.0.0, SVG Export Plug-In . SVG Version: 6.00 Build 0)  -->
<!DOCTYPE svg PUBLIC "-//W3C//DTD SVG 1.1//EN" "http://www.w3.org/Graphics/SVG/1.1/DTD/svg11.dtd">
<svg version="1.1" id="bitcat-icon-svg" xmlns="http://www.w3.org/2000/svg" xmlns:xlink="http://www.w3.org/1999/xlink" x="0px" y="0px"
	 width="1382.427px" height="1382.427px" viewBox="0 0 1382.427 1382.427" enable-background="new 0 0 1382.427 1382.427"
	 xml:space="preserve">
<g>
	<g>
		<defs>
			<rect id="SVGID_13_" x="72.73" y="208.326" width="639.818" height="1098.82"/>
		</defs>
		<clipPath id="SVGID_2_">
			<use xlink:href="#SVGID_13_"  overflow="visible"/>
		</clipPath>
		<path clip-path="url(#SVGID_2_)" fill-rule="evenodd" clip-rule="evenodd" fill="#1AC3E9" d="M709.297,1246.546
			c-101.667,1.307-193.76-0.931-283.482-30.688c-177.496-58.877-265.878-197.095-242.388-383.094
			c1.304-10.379,2.396-20.845,4.746-31.007c12.522-54.139,4.209-102.566-20.172-154.574
			c-42.025-89.655-51.278-186.508-28.981-284.759c11.743-51.731,36.367-73.892,89.675-77.012
			c78.625-4.594,151.392,13.979,216.335,59.108c18.557,12.897,34.243,17.849,57.325,7.889
			c131.508-56.775,264.535-55.628,396.671-2.408c25.732,10.37,43.644,7.425,65.476-8.206
			c64.682-46.323,138.734-60.574,216.897-55.892c45.875,2.742,73.765,26.244,83.793,72.585
			c22.624,104.573,13.42,206.349-34.315,301.292c-21.896,43.549-22.81,83.339-15.575,128.856
			c16.275,102.355,12.264,202.588-45.609,294.168c-55.418,87.701-142.64,123.443-237.499,146.558
			C856.01,1247.932,778.242,1248.354,709.297,1246.546z"/>
	</g>
	<g>
		<defs>
			<rect id="SVGID_15_" x="701.946" y="208.326" width="611.137" height="1091.866"/>
		</defs>
		<clipPath id="SVGID_4_">
			<use xlink:href="#SVGID_15_"  overflow="visible"/>
		</clipPath>
		<path clip-path="url(#SVGID_4_)" fill-rule="evenodd" clip-rule="evenodd" fill="#1AC3E9" d="M694.76,1247.273
			c101.667,1.307,193.761-0.931,283.482-30.69c177.496-58.875,265.878-197.093,242.388-383.092
			c-1.305-10.379-2.396-20.845-4.747-31.008c-12.522-54.139-4.209-102.566,20.173-154.575
			c42.024-89.655,51.277-186.507,28.98-284.757c-11.743-51.731-36.366-73.893-89.674-77.013
			c-78.625-4.594-151.392,13.979-216.336,59.108c-18.557,12.897-34.243,17.85-57.325,7.89
			c-131.507-56.776-264.535-55.629-396.67-2.409c-25.733,10.369-43.644,7.425-65.476-8.205
			c-64.681-46.324-138.734-60.575-216.898-55.894c-45.874,2.743-73.764,26.246-83.792,72.585
			c-22.624,104.574-13.42,206.35,34.315,301.293c21.896,43.549,22.81,83.34,15.574,128.856
			c-16.275,102.355-12.264,202.588,45.609,294.168c55.417,87.7,142.639,123.443,237.498,146.559
			C548.048,1248.659,625.815,1249.079,694.76,1247.273z"/>
	</g>
	<path fill-rule="evenodd" clip-rule="evenodd" fill="#FEFEFE" d="M708.303,1201.698c-92.405,0.928-175.48-2.579-257.186-25.563
		c-130.438-36.693-210.421-116.391-220.78-254.954c-13.871-185.573,57.237-400.54,239.014-502.468
		c292.192-163.844,643.44,10.782,696.934,347.376c8.719,54.841,15.197,109.797,8.402,165.076
		c-17.62,143.35-119.002,236.211-278.383,258.97C830.963,1199.462,765.583,1203.485,708.303,1201.698z"/>
	<path fill-rule="evenodd" clip-rule="evenodd" fill="#FBFBFB" d="M217.651,645.341c-47.326-93.319-49.501-185.574-32.624-279.665
		c3.803-21.214,20.416-32.489,41.969-34.453c59.759-5.434,116.083,6.392,168.3,35.879c10.556,5.967,28.843,11.329,18.481,29.019
		c-7.821,13.358-21.842,21.094-38.474,12.179c-30.703-16.463-63.323-25.496-97.91-29.904c-34.167-4.349-51.219,8.479-52.546,43.002
		c-1.839,47.896-3.923,96.097,10.032,142.461C243.442,592.303,239.471,616.198,217.651,645.341z"/>
	<path fill-rule="evenodd" clip-rule="evenodd" fill="#FBFBFB" d="M1185.816,645.689c47.326-93.319,49.5-185.575,32.625-279.665
		c-3.805-21.215-20.417-32.49-41.969-34.452c-59.76-5.434-116.085,6.392-168.3,35.878c-10.557,5.966-28.844,11.328-18.481,29.019
		c7.821,13.358,21.84,21.092,38.473,12.178c30.703-16.462,63.323-25.494,97.91-29.903c34.167-4.349,51.22,8.479,52.546,43.001
		c1.841,47.897,3.922,96.099-10.034,142.463C1160.025,592.649,1163.997,616.548,1185.816,645.689z"/>
	<path fill-rule="evenodd" clip-rule="evenodd" fill="#F7F7F7" d="M1129.335,533.234c-19.636-22.019-32.854-35.759-44.753-50.554
		c-8.712-10.844-28.647-21.227-16.786-36.661c12.969-16.876,36.275-22.372,57.116-17.913c19.147,4.106,15.241,23.653,14.315,37.76
		C1137.977,484.949,1133.831,503.844,1129.335,533.234z"/>
	<path fill-rule="evenodd" clip-rule="evenodd" fill="#F7F7F7" d="M275.588,534.007c19.636-22.02,32.852-35.76,44.753-50.555
		c8.713-10.845,28.647-21.227,16.787-36.663c-12.969-16.876-36.277-22.371-57.117-17.91c-19.146,4.104-15.24,23.652-14.314,37.758
		C266.945,485.722,271.092,504.615,275.588,534.007z"/>
	<path fill-rule="evenodd" clip-rule="evenodd" fill="#1AC3E9" d="M702.917,921.532c-15.413,0.306-28.939-5.321-41.303-13.831
		c-12.554-8.651-25.337-18.724-16.166-35.97c8.22-15.453,22.336-11.247,34.878-5.268c14.033,6.706,27.581,9.538,42.228,1.567
		c13.825-7.51,29.462-12.77,37.151,6.472c6.812,17.051-6.383,27.123-19.266,35.326C729.061,917.087,716.681,921.656,702.917,921.532
		z"/>
	<path fill-rule="evenodd" clip-rule="evenodd" fill="#FE8AC0" d="M476.054,923.62c-21.344-2.771-49.006,2.567-47.663-24.011
		c1.458-28.879,30.474-21.498,49.933-21.915c18.883-0.414,45.692-1.456,44.628,23.795
		C521.657,932.01,490.977,917.867,476.054,923.62z"/>
	<path fill-rule="evenodd" clip-rule="evenodd" fill="#FE8AC0" d="M927.375,923.26c-16.76-2.762-42.385,4.516-42.872-20.458
		c-0.604-31.07,27.967-24.81,47.386-24.881c18.059-0.062,45.351-4.471,42.729,24.354C972.207,928.834,945.163,920.21,927.375,923.26
		z"/>
	<path fill-rule="evenodd" clip-rule="evenodd" fill="#1AC3E9" d="M502.062,815.05c-2.141,17.581-2.57,39.468-26.945,37.991
		c-23.084-1.394-24.509-22.696-24.008-40.877c0.496-17.916,1.695-39.914,26.058-38.422
		C499.932,775.136,500.47,796.786,502.062,815.05z"/>
	<path fill-rule="evenodd" clip-rule="evenodd" fill="#1AC3E9" d="M952.937,815.864c-0.888,16.532-0.239,37.16-21.855,37.802
		c-25.77,0.761-23.675-22.233-23.539-39.634c0.13-17.21-2.625-40.993,23.129-39.922
		C955.164,775.129,951.777,798.366,952.937,815.864z"/>
</g>
</svg>

