<svg id="Layer_1" data-name="Layer 1" xmlns="http://www.w3.org/2000/svg" viewBox="0 0 7941.57 2623.87"><defs><style>.cls-1{fill:#fff;}.cls-2{fill:#ec1c24;}</style></defs><g id="Layer_2" data-name="Layer 2"><path class="cls-1" d="M2187.15,1172.88a25.33,25.33,0,0,1,3.21,12.35c0,13-12.85,21.63-24.9,24.72a68.55,68.55,0,0,1-19.27,2.48c-13.65,0-26.5-4.34-33.73-16.07-24.09-44.5-64.25-81-155.8-81-120.46,0-200,74.78-200,196.53,0,119.28,79.5,195.91,200,195.91,96.37,0,142.14-44.49,163-93.94,6.42-13.6,20.87-19.15,36.13-19.15a75.93,75.93,0,0,1,16.06,1.86c13.65,2.47,28.11,11.74,28.11,24.71a25,25,0,0,1-2.42,10.51c-28.11,61.19-95.57,130.41-238.51,130.41-172.67,0-282.68-97-282.68-250.91,0-150.19,110-249.68,277.06-249.68C2094.79,1061.64,2158.24,1118.49,2187.15,1172.88Z"/><path class="cls-1" d="M2350,1538.74c-5.62,12.36-17.67,17.31-31.31,17.31a70.83,70.83,0,0,1-16.06-1.86c-16.06-3.09-28.11-13.6-28.11-25.33a24.92,24.92,0,0,1,2.42-10.52l218.44-422.1c10.43-21,30.5-29,55.41-29,25.7,0,46.58,8,57,29l218.44,423.34a17.89,17.89,0,0,1,3.21,10.51c0,12.36-12.85,21.63-28.91,24.72a58.36,58.36,0,0,1-14.47,1.85c-14.44,0-27.29-5.56-32.92-17.3l-63.45-127.93H2411.9Zm315.62-179.22-89.15-179.84a504.36,504.36,0,0,1-24.9-58.71c-7.22,21-15.25,40.79-24.89,59.33L2436,1359.52Z"/><path class="cls-1" d="M3181.9,1279.79c125.28,20.4,193.55,53.15,193.55,142.76,0,79.73-79.51,139.68-223.27,139.68-183.1,0-220.84-72.93-240.11-123-.81-3.08-1.61-5.56-1.61-8,0-13.6,13.65-22.87,30.52-26a101.51,101.51,0,0,1,13.66-1.23c15.25,0,30.5,5.56,35.34,18.53,14.44,41.41,40.95,87.77,158.2,87.77,91.55,0,148.56-34,148.56-87.14,0-50.68-36.13-72.92-130.9-87.75l-64.25-10.51c-120.46-19.17-175.07-54.39-175.07-135.34,0-64.9,62.64-127.93,213.62-127.93,144.55,0,194.34,59.33,212,103.82a19.88,19.88,0,0,1,2.4,9.27c0,13-13.65,22.26-29.71,24.72a90.81,90.81,0,0,1-13.65,1.23c-14.47,0-28.91-4.94-35.34-17.92-12.85-35.23-46.59-69.83-135.73-69.83-93.16,0-135.73,35.84-135.73,76.64,0,44.49,28.11,67.36,118.06,81Z"/><path class="cls-1" d="M3576.89,1530.09c0,17.3-16.06,26-37.74,26-22.49,0-37.74-8.66-37.74-26.58V1137.65c0-47.59,24.89-66.74,81.9-66.74h178.3c126.87,0,198.35,50.06,198.35,137.81,0,92.7-73.88,146.47-201.57,146.47H3576.88v174.9Zm179.89-226.81c81.12,0,124.48-33.37,124.48-93.32,0-55.62-44.18-86.52-124.48-86.52H3602.59c-17.66,0-25.7,8-25.7,21.63v158.21Z"/><path class="cls-1" d="M4155,1478.79c0,14.22,12,19.79,29.72,19.79h287.49c20.89,0,32.12,11.12,32.12,26.57,0,14.83-11.23,27.19-32.12,27.19H4161.4c-57,0-81.91-19.15-81.91-66.12V1137.66c0-47.59,24.9-66.74,81.91-66.74H4465c20.88,0,32.12,11.12,32.12,26.57s-11.24,27.19-32.12,27.19H4182.28c-19.27,0-27.3,6.8-27.3,21.63v127.93h273.86c20.07,0,31.31,11.13,31.31,26.58,0,14.21-12,26-31.31,26H4155Z"/><path class="cls-1" d="M5093.67,1519.59a24.92,24.92,0,0,1,2.42,10.51c0,11.74-10.45,21-26.51,24.1a86.18,86.18,0,0,1-17.67,1.86c-13.65,0-25.7-5-31.33-16.07l-20.07-39.55c-57.82-120.5-80.31-164.39-160.62-164.39H4692.12v194.06c0,17.3-15.27,26-36.94,26-22.49,0-38.55-8.66-38.55-26.58V1137.67c0-47.59,24.89-66.74,81.91-66.74h187.92c116.45,0,180.7,47.58,180.7,123.59,0,71.08-52.21,108.15-126.9,120.52,48.19,11.13,73.88,52.54,133.32,168.11Zm-216.83-234.23c68.27,0,113.24-32.76,113.24-82.2,0-52.54-36.95-81-108.42-81h-163c-16.86,0-26.5,6.79-26.5,21.63v141.53Z"/><path class="cls-1" d="M5497.42,1137.66c0-47.59,24.89-66.74,81.91-66.74h142.95c177.49,0,281.87,86.52,281.87,235.46,0,153.89-106,246-281.87,246H5579.33c-57,0-81.91-19.15-81.91-66.12Zm76.29,339.9c0,14.22,9.64,21,25.7,21h118.85c130.11,0,206.4-71.08,206.4-191.59,0-118-71.48-182.92-204-182.92H5600.22c-15.25,0-26.51,7.41-26.51,20.39v333.1Z"/><path class="cls-1" d="M6167.86,1538.74c-5.62,12.36-17.67,17.31-31.31,17.31a70.83,70.83,0,0,1-16.06-1.86c-16.06-3.09-28.11-13.6-28.11-25.33a24.92,24.92,0,0,1,2.42-10.52l218.44-422.1c10.43-21,30.5-29,55.41-29,25.7,0,46.58,8,57,29l218.44,423.34a17.89,17.89,0,0,1,3.21,10.51c0,12.36-12.85,21.63-28.91,24.72a58.36,58.36,0,0,1-14.47,1.85c-14.44,0-27.29-5.56-32.92-17.3l-63.45-127.93H6229.7Zm315.61-179.22-89.15-179.84a504.36,504.36,0,0,1-24.9-58.71c-7.22,21-15.25,40.79-24.89,59.33l-90.75,179.22Z"/><path class="cls-1" d="M6999.72,1279.79c125.28,20.4,193.55,53.15,193.55,142.76,0,79.73-79.51,139.68-223.27,139.68-183.1,0-220.84-72.93-240.11-123-.81-3.08-1.61-5.56-1.61-8,0-13.6,13.65-22.87,30.52-26a101.51,101.51,0,0,1,13.66-1.23c15.25,0,30.5,5.56,35.34,18.53,14.44,41.41,40.95,87.77,158.2,87.77,91.55,0,148.56-34,148.56-87.14,0-50.68-36.13-72.92-130.9-87.75l-64.25-10.51c-120.46-19.17-175.07-54.39-175.07-135.34,0-64.9,62.64-127.93,213.62-127.93,144.55,0,194.34,59.33,212,103.82a19.88,19.88,0,0,1,2.4,9.27c0,13-13.65,22.26-29.71,24.72a90.81,90.81,0,0,1-13.65,1.23c-14.47,0-28.91-4.94-35.33-17.92-12.85-35.23-46.59-69.83-135.73-69.83-93.16,0-135.73,35.84-135.73,76.64,0,44.49,28.11,67.36,118.06,81Z"/><path class="cls-1" d="M7738.42,1092.53c0-17.3,16.87-25.33,40.17-25.33,20.87,0,36.93,8,36.93,25.33V1530.7c0,16.69-16.06,25.35-36.93,25.35-23.3,0-40.17-8.66-40.17-25.35V1326.14h-342.1V1530.7c0,16.69-16.87,25.35-38.55,25.35-22.49,0-38.55-8.66-38.55-25.35V1092.53c0-17.3,16.06-25.33,38.55-25.33,21.68,0,38.55,8,38.55,25.33v179.84h342.1Z"/><path class="cls-2" d="M601.6,1760.32c0-33.75-19.89-64.93-51.26-77.38C415,1629.22,333.1,1495.65,333.1,1312.54c0-186.9,80.23-319.62,216.58-372.47,31.71-12.29,51.92-43.65,51.92-77.65v-5.88c0-56.52-54.83-97.7-108.75-80.74-225.33,70.89-366.79,268.26-366.79,535.44,0,270.58,138.8,465.51,366.71,536.86,54,16.9,108.83-24.17,108.83-80.72Z"/><path class="cls-2" d="M794.09,865.24c0,34,20.9,63.63,51.84,77.75,67,30.59,101.62,81.69,126.37,132.68,17.09,31,48.31,48.1,87.92,48.1,16.63,0,31.41-2.18,44.34-6.37,33.32-9.54,67-37.42,67-78.22a85.4,85.4,0,0,0-8.79-38c-39.13-82-114.23-175.06-257.76-222.71-54.51-18.1-110.88,22.6-110.88,80v6.69Z"/><path class="cls-2" d="M1116,1470.05c-59.93-14.66-111.32,6.21-131.33,53.37-28.5,75.4-76.15,128.06-142.31,157.63-29.73,13.29-48.32,43.44-48.32,76v8.83c0,57.07,56,98.91,109.95,80.24,167.75-58.09,245.47-182.43,279.7-265.55,4.44-11.47,6.41-21.34,6.41-32C1190.15,1506.84,1152.36,1477.38,1116,1470.05Z"/></g></svg>