<svg id="Layer_1" data-name="Layer 1" xmlns="http://www.w3.org/2000/svg" viewBox="0 0 1080 1080"><defs><style>.cls-1{fill:#231f20;}.cls-2{fill:#ec1c24;}</style></defs><path class="cls-1" d="M320.355,550.82674c-3.51-.77-6.43.27-7.54,2.61-3.44,8.13-10.61,12.25-21.33,12.25-15.94,0-26.23-10.08-26.23-25.69,0-15.66,10.3-25.77,26.23-25.77,13,0,17.73,5.64,20.4,10.59a5.43312,5.43312,0,0,0,4.94,2.39,9.35194,9.35194,0,0,0,2.7-.35c1.84-.47,3.7-1.83,3.7-3.79a3.915,3.915,0,0,0-.49-1.89c-6.65-12.51-20.9-15.14-31.68-15.14-22.45,0-37.54,13.61-37.54,33.88,0,20.68,15.03,34.04,38.29,34.04,21.05,0,29.3-11.11,32.34-17.74a3.76284,3.76284,0,0,0,.36-1.6C324.515,552.62673,322.425,551.20675,320.355,550.82674Z"/><path class="cls-1" d="M378.985,510.93673c-1.37-2.76-4.09-4.16-8.07-4.16-3.84,0-6.48,1.4-7.85,4.15l-29.22,56.46a3.77325,3.77325,0,0,0-.36,1.61c0,1.78,1.75,3.41,4.15,3.88a10.16866,10.16866,0,0,0,2.25.26,4.72711,4.72711,0,0,0,4.64-2.6l8.13-16.74h36.52l8.34,16.82c.79,1.65,2.56,2.6,4.85,2.6a8.55069,8.55069,0,0,0,2.03-.25c2.55-.49,4.27-2.02,4.27-3.8a2.76988,2.76988,0,0,0-.49-1.63Zm6.48,34.92h-29.09l11.76-23.23a55.54118,55.54118,0,0,0,2.89-6.67,68.981,68.981,0,0,0,2.88,6.58Z"/><path class="cls-1" d="M455.365,535.20675l-7.95-1.24c-12.84-1.94-15.36-5.26-15.36-10.33,0-5.92,6.93-9.75,17.64-9.75,9.55,0,15.5,3.03,17.7,9.06.84,1.7,2.73,2.67,5.17,2.67a13.08194,13.08194,0,0,0,1.9-.17c2.63-.4,4.4-1.93,4.4-3.8a3.05421,3.05421,0,0,0-.36-1.42c-2.57-6.48-9.66-14.19-28.81-14.19-9.38,0-17.03,1.86-22.13,5.39-4.47,3.09-6.93,7.43-6.93,12.22,0,10.65,6.68,15.86,23.82,18.59l8.59,1.41c12.61,1.97,17.08,4.91,17.08,11.24,0,6.88-7.42,11.15-19.36,11.15-14.68,0-18.61-5.48-20.68-11.41-.64-1.73-2.63-2.8-5.19-2.8a12.37311,12.37311,0,0,0-1.66.14l-.25.03c-2.73.5-4.49,2.06-4.49,3.96a3.97571,3.97571,0,0,0,.18,1.01l.07.24c2.09,5.44,6.45,16.76,32.57,16.76,18.44,0,30.35-7.53,30.35-19.17C481.655,542.04671,471.595,537.8467,455.365,535.20675Z"/><path class="cls-1" d="M532.785,507.27672h-23.84c-8.03,0-11.45,2.82-11.45,9.42v52.38c0,2.54,2.07,4.05,5.55,4.05,3.42,0,5.54-1.52,5.54-3.97v-22.88h23.77c17.44,0,27.45-7.32,27.45-20.08C559.795,514.17672,549.955,507.27672,532.785,507.27672Zm15.49006,19.09c0,7.83-5.58,11.98-16.14,11.98h-23.55v-20.65c0-1.61.96-2.39,2.94-2.39h20.61C542.545,515.29671,548.275,519.22671,548.275,526.36672Z"/><path class="cls-1" d="M627.775,564.44674H589.345c-3.47,0-3.47-1.62-3.47-2.15v-19.82h36.11c2.72,0,4.69-1.67,4.69-3.97,0-2.46-1.84-4.05-4.69-4.05h-36.11v-16.6c0-1.44.54-2.39,3.15-2.39h37.79c2.91,0,4.79-1.62,4.79-4.13,0-2.46-1.88-4.05-4.79-4.05h-40.58c-8.03,0-11.45,2.82-11.45,9.42v46.6c0,6.55,3.42,9.34,11.45,9.34h41.55c3.31,0,4.79-2.08,4.79-4.13C632.575,566.0367,630.685,564.44674,627.775,564.44674Z"/><path class="cls-1" d="M708.615,562.64675c-7.06-13.73-10.68-19.89-16.22-22.12,10.1-2.2,15.42-7.78,15.42-16.23,0-10.66-9.22-17.02-24.66-17.02h-25.12c-8.03,0-11.45,2.82-11.45,9.42v52.38c0,2.54,2.11,4.05,5.65,4.05,3.41,0,5.44-1.48,5.44-3.97v-25.44h19.25c10.61,0,13.45,5.91,21.03,21.7l2.68,5.29a4.89489,4.89489,0,0,0,4.63,2.42,11.52469,11.52469,0,0,0,2.46-.26c2.4-.46,3.95-1.92,3.95-3.71a3.99678,3.99678,0,0,0-.38-1.65Zm-12.11-37.19c0,6.37-5.75,10.49-14.64,10.49h-24.19v-18.42c0-1.03.32-2.39,3.04-2.39h21.79C688.895,515.13674,696.505,516.92672,696.505,525.45675Z"/><path class="cls-1" d="M752.895,507.27672h-19.11c-8.03,0-11.45,2.82-11.45,9.42v46.6c0,6.55,3.42,9.34,11.45,9.34h19.11c23.91,0,38.18-12.48,38.18-33.38C791.075,519.22671,776.805,507.27672,752.895,507.27672Zm26.55,32.06c0,15.96-9.88,25.11-27.09,25.11h-15.89c-1.95,0-2.94-.78-2.94-2.31v-44.53c0-1.64,1.57-2.23,3.04-2.23h16.1C769.945,515.37673,779.445,523.88674,779.445,539.33675Z"/><path class="cls-1" d="M847.375,510.93673c-1.37-2.76-4.09-4.16-8.07-4.16-3.84,0-6.48,1.4-7.85,4.15l-29.22,56.46a3.79265,3.79265,0,0,0-.37,1.61c0,1.78,1.75,3.41,4.15,3.88a10.1688,10.1688,0,0,0,2.25.26,4.72712,4.72712,0,0,0,4.64-2.6l8.13-16.74h36.52l8.34,16.82c.79,1.65,2.56,2.6,4.85,2.6a8.55119,8.55119,0,0,0,2.03-.25c2.59-.5,4.27-1.99,4.27-3.8a2.81206,2.81206,0,0,0-.48-1.63Zm6.47,34.92h-29.09l11.76-23.23a55.54121,55.54121,0,0,0,2.89-6.67,68.98349,68.98349,0,0,0,2.88,6.58Z"/><path class="cls-1" d="M923.745,535.20675l-7.95-1.24c-12.84-1.94-15.36-5.26-15.36-10.33,0-5.92,6.93-9.75,17.64-9.75,9.55,0,15.5,3.03,17.7,9.06.84,1.7,2.73,2.67,5.17,2.67a13.0832,13.0832,0,0,0,1.9-.17c2.63-.4,4.4-1.93,4.4-3.8a3.05422,3.05422,0,0,0-.36-1.42c-2.57-6.48-9.66-14.19-28.81-14.19-9.38,0-17.03,1.86-22.13,5.39-4.47,3.09-6.93,7.43-6.93,12.22,0,10.65,6.68,15.86,23.82,18.59l8.59,1.41c12.61,1.97,17.08,4.91,17.08,11.24,0,6.88-7.42,11.15-19.36,11.15-14.68,0-18.61-5.48-20.68-11.41-.64-1.73-2.63-2.8-5.19-2.8a12.3728,12.3728,0,0,0-1.66.14l-.25.03c-2.73.5-4.49,2.06-4.49,3.96a4.132,4.132,0,0,0,.18,1.02l.07.24c2.09,5.44,6.45,16.76,32.57,16.76,18.44,0,30.35-7.53,30.35-19.17C950.045,542.04671,939.985,537.8467,923.745,535.20675Z"/><path class="cls-1" d="M1027.79506,506.77672c-3.68006,0-5.87,1.45-5.87,3.89v23.54h-44.73v-23.54c0-2.4-2.17-3.89-5.65-3.89-3.54,0-5.65,1.45-5.65,3.89v58.58c0,2.4,2.17,3.89,5.65,3.89,3.43,0,5.65-1.53,5.65-3.89v-26.85h44.73v26.85c0,2.4,2.25,3.89,5.87,3.89,3.3,0,5.43994-1.53,5.43994-3.89v-58.58C1033.235,508.26671,1031.145,506.77672,1027.79506,506.77672Z"/><path class="cls-2" d="M110.335,599.93673a11.07022,11.07022,0,0,0-6.85-10.34c-18.1-7.18-29.04-25.04-29.04-49.52,0-24.99,10.73-42.73,28.95-49.79a11.07055,11.07055,0,0,0,6.94-10.38v-.79a11.24992,11.24992,0,0,0-14.54-10.79c-30.12,9.48-49.03,35.86-49.03,71.58,0,36.17,18.56,62.23,49.02,71.77a11.259,11.259,0,0,0,14.55-10.79Z"/><path class="cls-2" d="M136.065,480.27672a11.47871,11.47871,0,0,0,6.93,10.39c8.96,4.09,13.58,10.92,16.89,17.74,2.28,4.15,6.46,6.43,11.75,6.43a19.24333,19.24333,0,0,0,5.93-.85c4.46-1.27,8.95-5,8.95-10.46a11.37091,11.37091,0,0,0-1.18-5.07c-5.23-10.97-15.27-23.4-34.46-29.77a11.27685,11.27685,0,0,0-14.82,10.7v.88992Z"/><path class="cls-2" d="M179.105,561.13674c-8.01-1.96-14.88.83-17.56,7.13-3.81,10.08-10.18,17.12-19.02,21.07a11.10407,11.10407,0,0,0-6.46,10.16v1.18a11.21548,11.21548,0,0,0,14.7,10.73,61.64237,61.64237,0,0,0,37.39-35.5,11.45937,11.45937,0,0,0,.86-4.28C189.015,566.05672,183.965,562.11672,179.105,561.13674Z"/></svg>