<?xml version="1.0" encoding="utf-8"?>
<!-- Generator: Adobe Illustrator 24.3.0, SVG Export Plug-In . SVG Version: 6.00 Build 0)  -->
<svg version="1.1" id="Layer_1" xmlns="http://www.w3.org/2000/svg" xmlns:xlink="http://www.w3.org/1999/xlink" x="0px" y="0px"
	 viewBox="0 0 749.2 209.1" style="enable-background:new 0 0 749.2 209.1;" xml:space="preserve">
<style type="text/css">
	.st0{clip-path:url(#SVGID_2_);}
	.st1{clip-path:url(#SVGID_4_);}
	.st2{clip-path:url(#SVGID_6_);}
	.st3{clip-path:url(#SVGID_8_);}
	.st4{clip-path:url(#SVGID_10_);}
	.st5{clip-path:url(#SVGID_12_);}
	.st6{fill-rule:evenodd;clip-rule:evenodd;fill:#F3F3FE;}
</style>
<g>
	<defs>
		<path id="SVGID_1_" d="M387.2,146.9c-5.6,6.6-23.6,19.6-25-0.9c15.2-8.5,27.2-21.7,34.2-37.7C402.8,115.3,392.8,140.3,387.2,146.9
			 M398,64.6c-4.2,1-17,9.6-22.3,12.6c-2.2-3.8-3.8-8-7-11c-0.9,0.5-0.3,2.1-0.5,4.7c-10.4-9.9-15.3-26.9-32.9-33.1
			c3.4,6.2,0.9,14.6-0.5,24.3l-5.5,1.5c10,7.5,50.7,19.3,64.6,20.9C395,80.7,399.8,68.1,398,64.6L398,64.6z M356.4,100.8
			c-10.4-3.9-11.2-6.9-16.3-13.6l-1.7-3.7l-0.4,4.1l-1.4,2c-9.2,8-27.1,44.4,1.7,39.6c7.5-1.2,17.5-7.6,23-10.9
			c7.9-4.6,15.8-9.1,23.7-13.7C381.3,105,365.5,104.3,356.4,100.8z M259.1,153.6c8.2-3.3,15.5-0.3,22-7.2
			c-29.2-7.6-49.2-16.6-60.1-48.2c3.4,1.6,7.3,5.3,11.6,7.7c5.1,2.8,10.7,4.6,16.5,5.5l-2.7-4.2c-0.8-1-1.7-1.7-2.8-3
			c-4.4-5.3-10-13.2-11.4-20.4c7.9,3.5,11.4,6,21,9.2c6.7,2.2,11.4,16.7,23.3,14.1c-15.7-5.5-22.8-18.8-10.9-33.1
			c4.2-5.1,9.2-6.8,15.2-1.8c8.5,7,12.9,8.3,18,12c-0.7-1.9-1.8-3.6-3.3-5c0.2-1,0.4-2,0.6-3.1c-0.2-6.2-0.1-19.1-6.5-22.2
			c6-2.5,10.8-2.3,14.3-8.8c-3.2-2.9-6.2-2.6-10.4-6.9c-2.6-2.6-5.7-5.8-6.6-10.8c6.6,2.4,15.6,6.4,17.9-1.2
			c-12.2-3.6-22.2-4-25.2-19.9c46.7,11.6,74.6-28.5,109,13.3c16.4,19.9,20.4,48.2,11.5,73.8c-6,17.3-21.7,41.4-38.6,51
			C331.4,160.4,286.1,160.9,259.1,153.6z"/>
	</defs>
	<clipPath id="SVGID_2_">
		<use xlink:href="#SVGID_1_"  style="overflow:visible;"/>
	</clipPath>
	<g class="st0">
		<g>
			<defs>
				<rect id="SVGID_3_" x="221" y="0" width="183.8" height="158.2"/>
			</defs>
			<clipPath id="SVGID_4_">
				<use xlink:href="#SVGID_3_"  style="overflow:visible;"/>
			</clipPath>
			<g class="st1">
				
					<image style="overflow:visible;enable-background:new    ;" width="930" height="800" xlink:href="D6E083CC.png"  transform="matrix(0.1998 0 0 0.1998 221.0269 7.260995e-02)">
				</image>
			</g>
		</g>
	</g>
</g>
<g>
	<defs>
		<path id="SVGID_5_" d="M415.8,162.7c-6.1,7.3-26,21.6-27.6-1c16.8-9.4,30-24,37.7-41.6C433.1,127.9,422,155.4,415.8,162.7
			 M427.8,71.8c-4.6,1.1-18.7,10.6-24.6,13.9c-2.5-4.2-4.2-8.8-7.7-12.1c-1,0.5-0.3,2.4-0.6,5.2c-11.5-11-16.9-29.7-36.3-36.5
			c3.7,6.9,1,16.2-0.5,26.9l-6.2,1.6c11.1,8.2,56,21.3,71.3,23.1C424.4,89.7,429.8,75.7,427.8,71.8L427.8,71.8z M381.8,111.8
			c-11.5-4.3-12.4-7.6-18.1-15c-0.6-1.4-1.2-2.8-1.8-4.1c-0.2,1.5-0.3,3-0.5,4.5l-1.5,2.2c-10.1,8.8-29.9,49,1.8,43.8
			c8.3-1.4,19.4-8.5,25.4-12l26.1-15.1C409.3,116.4,391.9,115.7,381.8,111.8L381.8,111.8z M274.4,170.1c9.1-3.6,17.1-0.3,24.3-8
			c-32.3-8.4-54.4-18.3-66.4-53.2c3.7,1.8,8,5.9,12.8,8.5c5.7,3.1,11.8,5.1,18.2,6l-2.9-4.6c-0.9-1.2-1.8-1.9-3-3.4
			c-4.8-5.9-11-14.6-12.5-22.5c8.7,3.8,12.5,6.6,23.1,10.1c7.4,2.4,12.6,18.5,25.7,15.6c-17.4-6.1-25.2-20.7-12.1-36.6
			c4.7-5.6,10.2-7.5,16.8-2c9.4,7.8,14.3,9.2,19.9,13.3c-0.8-2.1-2-4-3.6-5.6c0.2-1.1,0.5-2.3,0.7-3.4c-0.2-6.9-0.1-21.1-7.2-24.6
			c6.6-2.8,11.9-2.5,15.8-9.7c-3.5-3.2-6.8-2.9-11.5-7.6c-2.9-2.9-6.3-6.4-7.3-11.9c7.3,2.7,17.3,7.1,19.8-1.3
			c-13.4-3.9-24.5-4.4-27.8-22c51.5,12.8,82.3-31.4,120.3,14.7c18.1,22,22.5,53.2,12.7,81.5c-6.6,19.1-24,45.7-42.7,56.3
			C354.2,177.7,304.2,178.2,274.4,170.1z"/>
	</defs>
	<clipPath id="SVGID_6_">
		<use xlink:href="#SVGID_5_"  style="overflow:visible;"/>
	</clipPath>
	<g class="st2">
		<g>
			<defs>
				<rect id="SVGID_7_" x="232.3" y="0.5" width="203" height="174.6"/>
			</defs>
			<clipPath id="SVGID_8_">
				<use xlink:href="#SVGID_7_"  style="overflow:visible;"/>
			</clipPath>
			<g class="st3">
				
					<image style="overflow:visible;enable-background:new    ;" width="1026" height="883" xlink:href="D6E083CD.png"  transform="matrix(0.2 0 0 0.2 232.3269 0.5366)">
				</image>
			</g>
		</g>
	</g>
</g>
<g>
	<defs>
		<path id="SVGID_9_" d="M431.1,168c10-8.2,18.2-18.3,24.2-29.7c1.8,0.9,3.7,1.7,5.6,2.4c0,5.7-1.8,12.8-4.2,19.5
			c-6,3.4-12.5,6.6-17.9,7.5C436.2,168.1,433.6,168.2,431.1,168 M459.1,79.5c-3.7,1.4-10.2,5.4-16.1,9c-0.9-0.4-1.8-0.8-2.8-1.2
			c0.3-0.5,0.4-1.1,0.5-1.7c1-6.9,2.9-15,2.9-22.7C450,67.4,454.6,73.3,459.1,79.5L459.1,79.5z M442.3,127.6c-1,0-2.2,0-3.6-0.1
			c0.6-0.7,1.3-1.4,2-2.1C441.2,126.2,441.8,126.9,442.3,127.6L442.3,127.6z M452.2,136.6c-6.6,11.2-15.1,22.2-24.4,30.5
			c-0.7-0.3-1.3-0.8-1.8-1.4c-2.1-2.8-1.5-8.1-0.8-11.2c1.5-6.1,3.8-11.9,7-17.3c0.6-1.1,1.4-2.4,2.2-3.7l8.5-4.9
			c1,1.3,2.1,2.5,3.3,3.7C448.1,133.9,450.1,135.4,452.2,136.6L452.2,136.6z M467.9,92.1c-0.2,1.7-0.4,3.5-0.7,5.2c-3-1-6-2-9-3
			c1.3-4.3,2.6-9,2.6-12.2C463.1,85.4,465.4,88.8,467.9,92.1L467.9,92.1z M369.3,7.4c19.1-4.2,35.9-9.7,52.9-3.4
			c-6,1.4-12.1,2.8-18.3,3.7C392.4,9.5,380.7,9.4,369.3,7.4L369.3,7.4z M338.5,99c-0.6-0.8-1.3-1.5-2-2.3l0.8-3.7
			c-0.2-7.5-0.1-23.1-7.9-26.9c7.2-3,13-2.8,17.3-10.6c-3.8-3.5-7.5-3.1-12.6-8.3c-3.2-3.2-6.9-7-8-13.1c8,3,18.9,7.8,21.7-1.4
			c-14.7-4.3-26.8-4.8-30.4-24c14.8,3.7,28.1,3.1,40.3,1.1c-0.4,0.9-0.4,2-0.2,2.9c1.7,9,5.3,16.5,12.7,21.6
			c-0.5,0.2-0.9,0.5-1.3,0.8c-1.5,1.2-2.3,3.2-1.9,5.1c1.3,7.3,5.1,12,10.1,17.1c2.6,2.6,5.6,4.7,8.9,6.2l0.1,0.1l-0.1,0.7
			c-0.5,0.4-1.1,0.7-1.7,0.9c-3.3,1.5-7,2.3-10.5,3.8c-2.8,1.2-4.1,4.4-3,7.1c0.5,1.3,1.5,2.3,2.7,2.9c4.9,2.4,5.3,16.7,5.4,23
			c-3.9-2.4-7.6-5.1-11.2-8.1c-9.8-8.1-19.8-6.4-27.7,3.1C339.5,97.6,339,98.3,338.5,99L338.5,99z M296,117.6
			c-4.7-7.6-4.1-17.2,4.3-27.2c5.1-6.2,11.1-8.2,18.4-2.2c8.5,7,13.6,9.3,18.6,12.4c-4.7,6.9-6.6,13.7-6.2,20
			c-0.4-0.2-0.8-0.3-1.2-0.5c-4.8-1.6-9.4-3.5-13.9-5.6c-4.4-2.1-8.6-4.3-13.1-6.2c-2.8-1.2-6,0.1-7.2,2.8c-0.4,1-0.6,2.1-0.4,3.2
			C295.4,115.4,295.7,116.5,296,117.6L296,117.6z M305.4,174.1c-28-8.7-47.7-21.3-59-54.4c4.1,2,8.8,6.4,14,9.3
			c6.2,3.4,13,5.6,20,6.6l-3.2-5c-1-1.3-2-2.1-3.3-3.7c-5.3-6.4-12.1-16-13.7-24.6c9.5,4.2,13.7,7.2,25.3,11.1
			c4.8,1.6,8.8,8.5,14.2,13.1c2.5,4.8,5.4,9.3,8.7,13.5c-1.6-0.7-3.2-1.5-4.8-2.4c-5.4-3-10-7.6-15.5-10.3c-2.7-1.3-6-0.2-7.3,2.5
			c-0.6,1.3-0.7,2.8-0.3,4.2C286.7,151.9,294.9,164.6,305.4,174.1z M292.4,186.7c8.2-3.2,15.5-1.4,22.3-5.3c6.6,4.3,13.6,8,21,10.8
			C319.6,191.9,304.5,190,292.4,186.7L292.4,186.7z"/>
	</defs>
	<clipPath id="SVGID_10_">
		<use xlink:href="#SVGID_9_"  style="overflow:visible;"/>
	</clipPath>
	<g class="st4">
		<g>
			<defs>
				<rect id="SVGID_11_" x="246.4" y="1.1" width="221.5" height="191.1"/>
			</defs>
			<clipPath id="SVGID_12_">
				<use xlink:href="#SVGID_11_"  style="overflow:visible;"/>
			</clipPath>
			<g class="st5">
				
					<image style="overflow:visible;enable-background:new    ;" width="1120" height="966" xlink:href="D6E083CB.png"  transform="matrix(0.2 0 0 0.2 246.4369 1.0966)">
				</image>
			</g>
		</g>
	</g>
</g>
<path class="st6" d="M505,194.3c-7.3,8.7-31,25.7-32.8-1.2c19.9-11.2,35.7-28.5,44.9-49.5C525.5,152.9,512.3,185.6,505,194.3
	 M519.2,86.3c-5.5,1.4-22.3,12.6-29.2,16.5c-2.9-5-4.9-10.5-9.1-14.4c-1.2,0.6-0.4,2.8-0.7,6.2c-13.6-13-20.1-35.3-43.1-43.4
	c4.4,8.2,1.2,19.2-0.6,31.9l-7.3,1.9c13.1,9.8,66.6,25.3,84.7,27.4C515.1,107.4,521.5,90.9,519.2,86.3L519.2,86.3z M464.4,133.9
	c-13.7-5.1-14.8-9.1-21.5-17.9l-2.1-4.9l-0.5,5.4l-1.8,2.6c-12,10.5-35.6,58.3,2.2,52c9.8-1.6,23-10,30.2-14.3l31.1-18
	C497.2,139.3,476.5,138.4,464.4,133.9L464.4,133.9z M336.8,203.1c10.8-4.3,20.3-0.4,28.9-9.5c-38.4-10-64.6-21.8-78.9-63.2
	c4.4,2.1,9.5,7,15.2,10.1c6.7,3.7,14,6.1,21.6,7.2l-3.5-5.5c-1.1-1.4-2.2-2.2-3.6-4c-5.7-7-13.1-17.3-14.9-26.8
	c10.4,4.5,14.9,7.8,27.5,12c8.7,2.9,14.9,22,30.5,18.5c-20.6-7.3-29.9-24.6-14.3-43.4c5.6-6.7,12.1-8.9,20-2.4
	c11.1,9.2,17,10.9,23.6,15.8c-1-2.5-2.4-4.7-4.3-6.6l0.9-4c-0.2-8.1-0.1-25.1-8.5-29.2c7.8-3.3,14.2-3,18.8-11.6
	c-4.2-3.8-8.1-3.4-13.7-9c-3.4-3.5-7.5-7.6-8.6-14.2c8.7,3.2,20.5,8.5,23.5-1.5c-16-4.6-29.1-5.3-33-26.1
	c61.2,15.3,97.9-37.4,143,17.5c21.5,26.2,26.7,63.3,15.1,96.9c-7.8,22.7-28.5,54.3-50.7,66.9C431.7,212.2,372.2,212.7,336.8,203.1z"
	/>
</svg>
